<?xml version="1.0" encoding="UTF-8" standalone="no"?>
<!DOCTYPE svg PUBLIC "-//W3C//DTD SVG 1.1//EN"
 "http://www.w3.org/Graphics/SVG/1.1/DTD/svg11.dtd">
<!-- Generated by graphviz version 2.43.0 (0)
 -->
<!-- Title: corrsolver/bspline.hpp Pages: 1 -->
<svg width="624pt" height="137pt"
 viewBox="0.00 0.00 624.00 137.00" xmlns="http://www.w3.org/2000/svg" xmlns:xlink="http://www.w3.org/1999/xlink">
<g id="graph0" class="graph" transform="scale(1 1) rotate(0) translate(4 133)">
<title>corrsolver/bspline.hpp</title>
<!-- Node1 -->
<g id="Node000001" class="node">
<title>Node1</title>
<g id="a_Node000001"><a xlink:title="Quadratic B&#45;spline basis (clamped knots, scipy&#45;compatible extrapolation) and the monotone&#45;decreasing ...">
<polygon fill="#999999" stroke="#666666" points="425,-129 300,-129 300,-110 425,-110 425,-129"/>
<text text-anchor="middle" x="362.5" y="-117" font-family="Helvetica,sans-Serif" font-size="10.00">corrsolver/bspline.hpp</text>
</a>
</g>
</g>
<!-- Node2 -->
<g id="Node000002" class="node">
<title>Node2</title>
<g id="a_Node000002"><a xlink:href="geometry_8hpp.html" target="_top" xlink:title="Pairwise distance geometry for site layouts.">
<polygon fill="white" stroke="#666666" points="135,-74 0,-74 0,-55 135,-55 135,-74"/>
<text text-anchor="middle" x="67.5" y="-62" font-family="Helvetica,sans-Serif" font-size="10.00">corrsolver/geometry.hpp</text>
</a>
</g>
</g>
<!-- Node1&#45;&gt;Node2 -->
<g id="edge1_Node000001_Node000002" class="edge">
<title>Node1&#45;&gt;Node2</title>
<g id="a_edge1_Node000001_Node000002"><a xlink:title=" ">
<path fill="none" stroke="#63b8ff" d="M315.1,-109.98C263.43,-100.7 180.73,-85.84 125.29,-75.88"/>
<polygon fill="#63b8ff" stroke="#63b8ff" points="125.73,-72.41 115.27,-74.08 124.49,-79.3 125.73,-72.41"/>
</a>
</g>
</g>
<!-- Node3 -->
<g id="Node000003" class="node">
<title>Node3</title>
<g id="a_Node000003"><a xlink:title=" ">
<polygon fill="#e0e0e0" stroke="#999999" points="206.5,-19 120.5,-19 120.5,0 206.5,0 206.5,-19"/>
<text text-anchor="middle" x="163.5" y="-7" font-family="Helvetica,sans-Serif" font-size="10.00">ellalgo/arr.hpp</text>
</a>
</g>
</g>
<!-- Node1&#45;&gt;Node3 -->
<g id="edge7_Node000001_Node000003" class="edge">
<title>Node1&#45;&gt;Node3</title>
<g id="a_edge7_Node000001_Node000003"><a xlink:title=" ">
<path fill="none" stroke="#63b8ff" d="M301.25,-109.97C256.05,-102.49 199.57,-90.27 182.5,-74 170.4,-62.48 165.92,-43.6 164.3,-29.42"/>
<polygon fill="#63b8ff" stroke="#63b8ff" points="167.78,-28.98 163.53,-19.28 160.8,-29.51 167.78,-28.98"/>
</a>
</g>
</g>
<!-- Node4 -->
<g id="Node000004" class="node">
<title>Node4</title>
<g id="a_Node000004"><a xlink:href="types_8hpp.html" target="_top" xlink:title="Shared type aliases.">
<polygon fill="white" stroke="#666666" points="307.5,-74 191.5,-74 191.5,-55 307.5,-55 307.5,-74"/>
<text text-anchor="middle" x="249.5" y="-62" font-family="Helvetica,sans-Serif" font-size="10.00">corrsolver/types.hpp</text>
</a>
</g>
</g>
<!-- Node1&#45;&gt;Node4 -->
<g id="edge3_Node000001_Node000004" class="edge">
<title>Node1&#45;&gt;Node4</title>
<g id="a_edge3_Node000001_Node000004"><a xlink:title=" ">
<path fill="none" stroke="#63b8ff" d="M344.34,-109.98C326.25,-101.5 298.22,-88.35 277.31,-78.54"/>
<polygon fill="#63b8ff" stroke="#63b8ff" points="278.53,-75.25 267.99,-74.17 275.55,-81.59 278.53,-75.25"/>
</a>
</g>
</g>
<!-- Node5 -->
<g id="Node000005" class="node">
<title>Node5</title>
<g id="a_Node000005"><a xlink:title=" ">
<polygon fill="#e0e0e0" stroke="#999999" points="315,-19 270,-19 270,0 315,0 315,-19"/>
<text text-anchor="middle" x="292.5" y="-7" font-family="Helvetica,sans-Serif" font-size="10.00">utility</text>
</a>
</g>
</g>
<!-- Node1&#45;&gt;Node5 -->
<g id="edge10_Node000001_Node000005" class="edge">
<title>Node1&#45;&gt;Node5</title>
<g id="a_edge10_Node000001_Node000005"><a xlink:title=" ">
<path fill="none" stroke="#63b8ff" d="M356.77,-109.66C345.18,-91.77 318.75,-51 303.64,-27.69"/>
<polygon fill="#63b8ff" stroke="#63b8ff" points="306.49,-25.65 298.11,-19.16 300.61,-29.45 306.49,-25.65"/>
</a>
</g>
</g>
<!-- Node6 -->
<g id="Node000006" class="node">
<title>Node6</title>
<g id="a_Node000006"><a xlink:title=" ">
<polygon fill="#e0e0e0" stroke="#999999" points="417,-74 364,-74 364,-55 417,-55 417,-74"/>
<text text-anchor="middle" x="390.5" y="-62" font-family="Helvetica,sans-Serif" font-size="10.00">cstddef</text>
</a>
</g>
</g>
<!-- Node1&#45;&gt;Node6 -->
<g id="edge6_Node000001_Node000006" class="edge">
<title>Node1&#45;&gt;Node6</title>
<g id="a_edge6_Node000001_Node000006"><a xlink:title=" ">
<path fill="none" stroke="#63b8ff" d="M367.12,-109.75C370.96,-102.49 376.52,-91.95 381.26,-82.98"/>
<polygon fill="#63b8ff" stroke="#63b8ff" points="384.39,-84.57 385.96,-74.09 378.2,-81.3 384.39,-84.57"/>
</a>
</g>
</g>
<!-- Node7 -->
<g id="Node000007" class="node">
<title>Node7</title>
<g id="a_Node000007"><a xlink:title=" ">
<polygon fill="#e0e0e0" stroke="#999999" points="491.5,-74 435.5,-74 435.5,-55 491.5,-55 491.5,-74"/>
<text text-anchor="middle" x="463.5" y="-62" font-family="Helvetica,sans-Serif" font-size="10.00">optional</text>
</a>
</g>
</g>
<!-- Node1&#45;&gt;Node7 -->
<g id="edge8_Node000001_Node000007" class="edge">
<title>Node1&#45;&gt;Node7</title>
<g id="a_edge8_Node000001_Node000007"><a xlink:title=" ">
<path fill="none" stroke="#63b8ff" d="M378.73,-109.98C394.68,-101.61 419.28,-88.7 437.88,-78.95"/>
<polygon fill="#63b8ff" stroke="#63b8ff" points="439.75,-81.92 446.98,-74.17 436.5,-75.72 439.75,-81.92"/>
</a>
</g>
</g>
<!-- Node8 -->
<g id="Node000008" class="node">
<title>Node8</title>
<g id="a_Node000008"><a xlink:title=" ">
<polygon fill="#e0e0e0" stroke="#999999" points="551,-74 510,-74 510,-55 551,-55 551,-74"/>
<text text-anchor="middle" x="530.5" y="-62" font-family="Helvetica,sans-Serif" font-size="10.00">tuple</text>
</a>
</g>
</g>
<!-- Node1&#45;&gt;Node8 -->
<g id="edge9_Node000001_Node000008" class="edge">
<title>Node1&#45;&gt;Node8</title>
<g id="a_edge9_Node000001_Node000008"><a xlink:title=" ">
<path fill="none" stroke="#63b8ff" d="M389.49,-109.98C419.79,-100.43 468.82,-84.96 500.35,-75.01"/>
<polygon fill="#63b8ff" stroke="#63b8ff" points="501.45,-78.34 509.93,-71.99 499.34,-71.66 501.45,-78.34"/>
</a>
</g>
</g>
<!-- Node9 -->
<g id="Node000009" class="node">
<title>Node9</title>
<g id="a_Node000009"><a xlink:title=" ">
<polygon fill="#e0e0e0" stroke="#999999" points="616,-74 569,-74 569,-55 616,-55 616,-74"/>
<text text-anchor="middle" x="592.5" y="-62" font-family="Helvetica,sans-Serif" font-size="10.00">vector</text>
</a>
</g>
</g>
<!-- Node1&#45;&gt;Node9 -->
<g id="edge11_Node000001_Node000009" class="edge">
<title>Node1&#45;&gt;Node9</title>
<g id="a_edge11_Node000001_Node000009"><a xlink:title=" ">
<path fill="none" stroke="#63b8ff" d="M402.43,-110C440.38,-101.82 499.29,-88.84 558.82,-74.35"/>
<polygon fill="#63b8ff" stroke="#63b8ff" points="559.88,-77.69 568.76,-71.91 558.22,-70.89 559.88,-77.69"/>
</a>
</g>
</g>
<!-- Node2&#45;&gt;Node3 -->
<g id="edge2_Node000002_Node000003" class="edge">
<title>Node2&#45;&gt;Node3</title>
<g id="a_edge2_Node000002_Node000003"><a xlink:title=" ">
<path fill="none" stroke="#63b8ff" d="M82.92,-54.98C97.95,-46.69 121.04,-33.94 138.66,-24.22"/>
<polygon fill="#63b8ff" stroke="#63b8ff" points="140.73,-27.07 147.8,-19.17 137.35,-20.94 140.73,-27.07"/>
</a>
</g>
</g>
<!-- Node4&#45;&gt;Node3 -->
<g id="edge4_Node000004_Node000003" class="edge">
<title>Node4&#45;&gt;Node3</title>
<g id="a_edge4_Node000004_Node000003"><a xlink:title=" ">
<path fill="none" stroke="#63b8ff" d="M235.68,-54.98C222.35,-46.77 201.92,-34.18 186.19,-24.49"/>
<polygon fill="#63b8ff" stroke="#63b8ff" points="187.92,-21.44 177.57,-19.17 184.25,-27.4 187.92,-21.44"/>
</a>
</g>
</g>
<!-- Node4&#45;&gt;Node5 -->
<g id="edge5_Node000004_Node000005" class="edge">
<title>Node4&#45;&gt;Node5</title>
<g id="a_edge5_Node000004_Node000005"><a xlink:title=" ">
<path fill="none" stroke="#63b8ff" d="M256.6,-54.75C262.67,-47.26 271.59,-36.28 279.01,-27.13"/>
<polygon fill="#63b8ff" stroke="#63b8ff" points="281.95,-29.06 285.53,-19.09 276.51,-24.65 281.95,-29.06"/>
</a>
</g>
</g>
</g>
</svg>
